<?xml version="1.0" standalone="no"?>
<!DOCTYPE svg PUBLIC "-//W3C//DTD SVG 20010904//EN"
 "http://www.w3.org/TR/2001/REC-SVG-20010904/DTD/svg10.dtd">
<svg version="1.0" xmlns="http://www.w3.org/2000/svg"
 width="10000.000000pt" height="10000.000000pt" viewBox="0 0 10000.000000 10000.000000"
 preserveAspectRatio="xMidYMid meet">

<g transform="translate(0.000000,10000.000000) scale(0.100000,-0.100000)"
fill="#202329" stroke="none">
<path d="M31890 88235 c-59 -18 -117 -69 -157 -137 -49 -80 -277 -886 -352
-1243 -82 -387 -100 -556 -111 -1060 -13 -619 -55 -1048 -156 -1600 -184
-1007 -508 -2037 -1135 -3608 -146 -364 -183 -437 -272 -533 -97 -105 -166
-137 -303 -142 -208 -8 -322 42 -974 433 -467 280 -1037 550 -1795 853 -924
369 -1928 673 -2910 882 -132 28 -310 69 -395 90 -311 79 -425 93 -550 66
-135 -29 -223 -88 -301 -204 -62 -93 -83 -162 -82 -272 1 -154 45 -272 218
-580 648 -1151 1158 -2544 1559 -4250 142 -606 334 -1542 357 -1739 29 -254
-21 -366 -197 -448 -200 -92 -893 -227 -1499 -292 -554 -60 -1022 -85 -2130
-116 -1252 -35 -1480 -51 -2775 -200 -900 -104 -1204 -133 -1595 -155 -436
-24 -502 -30 -576 -49 -385 -99 -464 -406 -207 -798 151 -230 363 -449 698
-723 328 -267 711 -654 1420 -1435 1194 -1314 1862 -2239 2396 -3318 234 -473
278 -599 278 -792 -1 -165 -41 -267 -152 -387 -66 -71 -150 -132 -252 -183
-99 -50 -217 -129 -317 -212 -733 -616 -907 -747 -1982 -1492 -808 -560 -1124
-789 -1486 -1080 -321 -257 -465 -359 -940 -661 -566 -361 -897 -609 -990
-744 -74 -108 -57 -206 53 -307 119 -109 293 -205 482 -267 138 -45 186 -56
595 -137 1108 -219 1950 -499 2790 -929 837 -428 1537 -957 2170 -1642 308
-333 660 -795 763 -999 55 -110 72 -174 72 -269 -1 -182 -79 -286 -422 -558
-555 -442 -987 -843 -1773 -1643 -258 -264 -609 -621 -780 -795 -170 -173
-361 -374 -424 -445 -147 -167 -347 -413 -398 -490 -177 -263 -186 -506 -23
-665 54 -53 297 -183 700 -375 691 -329 1014 -450 2175 -815 658 -207 1016
-326 1305 -435 772 -291 932 -422 932 -760 -1 -192 -54 -413 -290 -1200 -148
-494 -207 -708 -272 -990 -28 -121 -88 -366 -135 -545 -177 -685 -227 -972
-228 -1315 -1 -124 3 -175 17 -225 49 -181 154 -283 333 -326 127 -31 854 -17
1148 22 928 122 1159 139 1719 131 204 -3 421 -10 481 -17 187 -19 446 -59
525 -80 186 -52 324 -156 393 -300 67 -137 75 -188 112 -720 33 -478 44 -720
55 -1205 8 -377 11 -421 34 -542 47 -240 90 -341 183 -423 90 -79 218 -103
399 -75 146 22 373 81 585 151 209 68 619 224 709 269 187 94 316 247 366 435
23 91 22 252 -4 350 -31 117 -56 164 -285 547 -541 903 -864 1486 -1192 2148
-409 826 -638 1418 -1104 2847 -201 620 -239 746 -319 1063 -128 506 -207 901
-357 1783 -85 503 -118 656 -279 1293 -148 584 -210 893 -246 1224 -23 212
-31 1252 -28 3645 5 2801 -6 2513 94 2618 51 55 53 56 68 37 32 -41 87 -163
107 -240 29 -109 29 -309 1 -550 -72 -600 -108 -1403 -91 -1997 20 -731 93
-1310 245 -1955 99 -422 107 -501 124 -1148 6 -220 15 -463 20 -540 87 -1229
314 -2456 779 -4215 513 -1941 1228 -3668 2231 -5390 485 -833 735 -1186 1080
-1530 270 -270 660 -556 1200 -880 538 -323 1093 -598 2023 -1001 457 -198
560 -256 701 -390 134 -127 218 -285 247 -462 18 -116 7 -290 -26 -402 -94
-322 -357 -632 -671 -792 -153 -78 -652 -239 -2021 -652 -1510 -455 -1750
-535 -3208 -1066 -1097 -399 -1619 -580 -2260 -784 -299 -96 -514 -219 -695
-401 -156 -155 -260 -317 -329 -513 -87 -248 -436 -1492 -696 -2483 -515
-1964 -958 -3479 -1580 -5414 -191 -594 -236 -754 -431 -1555 -141 -579 -207
-829 -299 -1130 -127 -412 -268 -772 -431 -1097 -62 -124 -87 -221 -88 -343
-1 -149 35 -264 118 -376 41 -55 1170 -1067 1791 -1605 782 -677 1903 -1596
2975 -2439 778 -612 1248 -940 2352 -1641 753 -479 1032 -656 1190 -761 90
-58 199 -123 243 -144 214 -103 480 -121 820 -54 209 40 314 79 770 283 244
109 343 141 622 206 1867 431 3443 602 4833 525 459 -25 844 -70 1375 -159
193 -33 528 -87 745 -120 1004 -154 1353 -236 1905 -452 127 -50 383 -148 570
-218 678 -256 911 -354 1230 -515 377 -191 497 -269 1035 -678 738 -561 999
-777 1328 -1102 424 -418 595 -640 942 -1228 54 -92 212 -339 351 -550 349
-528 389 -594 613 -1000 130 -236 328 -399 536 -443 94 -20 234 -13 338 16
221 62 346 191 398 410 17 71 18 208 20 2345 2 1477 7 2324 13 2425 18 260 53
415 127 569 38 78 60 109 132 181 73 74 102 95 182 133 115 56 230 90 387 114
111 17 254 18 2268 18 2301 0 2251 1 2530 -50 400 -74 724 -234 998 -495 55
-52 170 -174 256 -270 196 -220 453 -477 786 -785 1096 -1013 1270 -1207 2280
-2525 429 -560 692 -895 801 -1021 160 -184 309 -309 470 -391 116 -60 195
-83 362 -107 893 -129 1404 -71 1889 215 314 185 647 288 1143 354 348 47 490
89 626 185 119 86 192 222 230 435 16 86 18 250 24 1780 8 1770 7 1746 55
1945 92 386 326 612 720 696 182 38 330 40 3055 36 2883 -3 2688 1 2870 -59
242 -78 393 -247 464 -518 35 -131 44 -197 61 -433 7 -113 21 -234 30 -268 22
-84 66 -174 113 -228 l38 -44 129 269 c283 588 385 773 537 976 113 150 309
354 448 465 572 460 1296 571 2110 326 47 -14 159 -52 250 -85 257 -94 367
-119 543 -125 162 -6 257 5 365 41 177 61 274 131 532 388 318 317 571 512
1445 1118 566 393 775 545 1047 762 492 392 955 872 1127 1167 101 173 142
344 123 521 -6 58 -23 145 -37 194 -39 135 -518 1323 -713 1771 -373 855 -736
1516 -1149 2090 -169 236 -232 362 -254 509 -28 188 51 366 251 566 52 53 302
269 555 480 980 818 1432 1225 1832 1649 361 382 518 573 903 1102 134 184
287 376 526 659 105 124 237 281 294 350 269 324 356 411 576 576 203 152 399
268 881 517 656 341 877 486 1176 776 527 511 864 1181 963 1916 22 162 25
551 6 705 -75 599 -304 1091 -721 1544 -106 116 -148 176 -201 289 -75 161
-94 303 -65 497 39 272 119 783 156 1005 85 507 139 773 308 1520 91 399 149
742 188 1100 13 120 17 251 17 525 1 406 -2 447 -69 905 -187 1271 -275 2179
-305 3140 -5 182 -14 483 -20 670 -32 1045 -126 1578 -412 2340 -248 660 -542
1228 -1285 2480 -104 176 -257 435 -338 575 -912 1568 -1823 2839 -2854 3985
-411 455 -976 1023 -1197 1200 -234 189 -535 362 -789 453 -60 22 -195 63
-299 92 -661 180 -1213 427 -1856 830 -690 432 -1449 785 -2280 1058 -1309
431 -2702 622 -4535 622 -3234 -1 -5965 -569 -8650 -1801 -1559 -714 -2804
-1678 -4356 -3369 -68 -75 -266 -295 -439 -490 -1222 -1376 -1713 -1988 -2463
-3071 -789 -1140 -1157 -1926 -1322 -2819 -58 -313 -68 -606 -36 -965 46 -498
38 -587 -89 -1090 -106 -414 -229 -789 -540 -1645 -373 -1024 -513 -1481 -620
-2020 -74 -373 -102 -642 -102 -975 0 -417 54 -749 177 -1090 111 -309 351
-744 1227 -2230 314 -534 390 -681 445 -865 63 -213 16 -398 -156 -610 -38
-47 -176 -191 -306 -320 -320 -317 -427 -453 -540 -685 -98 -201 -137 -343
-172 -625 -26 -208 -25 -773 0 -980 68 -545 215 -1072 451 -1620 113 -260 212
-416 359 -563 235 -234 522 -387 1042 -552 116 -36 334 -106 485 -155 151 -48
311 -94 355 -100 264 -40 507 75 607 287 88 187 52 339 -232 988 -118 268
-170 400 -215 550 -35 116 -95 433 -95 505 0 85 84 145 193 138 79 -5 152 -39
228 -107 102 -91 135 -161 193 -406 38 -163 235 -884 307 -1127 137 -461 280
-817 439 -1094 128 -222 507 -801 741 -1130 613 -863 1193 -1485 1824 -1959
253 -190 1239 -859 1650 -1120 555 -353 1142 -678 1580 -874 371 -167 849
-341 1185 -432 234 -63 377 -125 612 -267 304 -184 547 -287 863 -365 195 -49
234 -56 1149 -192 1077 -161 1604 -263 2256 -435 439 -116 712 -151 1450 -185
184 -8 396 -18 470 -22 123 -5 147 -3 275 23 177 36 291 39 332 8 67 -50 97
-139 74 -224 -34 -127 -171 -162 -492 -126 -291 32 -710 60 -1534 101 -610 30
-929 49 -1270 76 -1146 88 -1982 246 -2785 526 -383 133 -685 210 -1430 363
-526 108 -755 161 -1014 234 -105 30 -257 68 -338 85 -222 48 -296 77 -438
176 -249 174 -494 209 -749 107 -93 -37 -233 -133 -322 -222 -137 -135 -332
-418 -487 -707 -143 -267 -258 -529 -482 -1098 -247 -628 -290 -724 -592
-1330 -313 -629 -474 -981 -627 -1363 -298 -745 -459 -1402 -497 -2027 -7
-119 -31 -231 -62 -292 -24 -46 -82 -107 -122 -128 -26 -13 -409 -78 -720
-121 -171 -24 -588 -25 -708 -2 -260 51 -349 164 -518 662 -102 301 -163 539
-305 1206 -84 392 -135 598 -292 1195 -53 198 -181 691 -286 1095 -385 1490
-505 1914 -936 3325 -440 1441 -628 2121 -800 2895 -99 444 -170 669 -443
1397 -211 561 -260 715 -427 1323 -239 873 -489 1738 -985 3415 -145 492 -169
567 -227 710 -144 356 -355 656 -596 848 -214 172 -460 289 -739 351 -64 14
-212 37 -329 50 -432 50 -500 68 -2329 611 -1828 543 -2432 713 -3382 950
-296 74 -569 147 -607 163 -196 82 -344 253 -400 463 -40 148 -46 234 -46 709
0 390 3 465 17 527 25 109 61 174 129 237 81 75 199 131 524 249 336 122 510
196 775 328 670 336 1272 785 1802 1346 214 226 352 390 640 764 412 534 793
830 1268 986 58 19 217 57 355 84 498 99 930 232 1449 448 256 107 390 185
490 286 207 211 159 462 -154 800 -339 366 -556 664 -995 1365 -139 222 -186
314 -211 412 -52 200 57 358 316 461 106 42 352 115 560 167 469 117 856 180
1455 235 154 15 323 34 375 45 355 68 490 210 490 512 0 292 -121 711 -424
1466 -253 630 -337 873 -412 1197 -24 102 -28 143 -28 270 -1 175 10 221 78
313 123 166 277 233 1430 621 854 288 1177 412 1581 610 251 123 398 204 605
336 80 50 213 129 295 174 321 177 442 285 507 452 26 69 35 215 18 290 -43
189 -191 340 -525 539 -49 29 -155 95 -235 145 -292 184 -498 302 -1045 600
-893 486 -1247 700 -1623 982 -233 175 -514 422 -647 570 -30 34 -104 102
-163 152 -158 131 -198 197 -190 312 9 123 87 244 204 319 80 50 181 87 463
165 990 276 1918 605 2936 1040 766 328 2057 942 2575 1226 550 301 1096 660
1391 915 271 234 361 433 276 617 -55 121 -233 267 -472 389 -95 48 -1901 815
-4225 1793 -388 163 -740 315 -783 337 -152 79 -228 176 -213 270 8 52 54 139
107 203 39 47 435 467 989 1049 340 358 741 761 976 981 482 453 803 717 1420
1167 342 248 621 514 1264 1203 118 126 290 307 381 401 132 135 173 185 198
236 64 130 51 253 -39 351 -75 82 -134 108 -457 198 -753 209 -1063 271 -1548
309 -1016 78 -1780 184 -3440 475 -236 42 -639 111 -895 155 -256 44 -496 89
-535 101 -148 44 -247 117 -281 204 -25 67 -15 178 24 280 35 88 51 115 397
675 837 1355 1589 2668 2215 3870 215 412 237 448 692 1120 250 370 389 619
488 873 28 71 73 177 99 236 27 58 57 133 66 165 45 155 -27 296 -193 378 -62
31 -73 33 -167 32 -62 0 -125 -7 -165 -18 -36 -10 -454 -157 -930 -328 -1845
-661 -4919 -1757 -4995 -1781 -209 -66 -403 -79 -524 -38 -131 45 -219 125
-290 261 -57 108 -84 200 -141 474 -28 132 -109 504 -180 826 -254 1150 -325
1555 -397 2270 -15 147 -17 428 -23 2610 -5 2307 -6 2448 -23 2505 -28 92 -57
145 -113 202 -59 59 -147 107 -236 128 -80 19 -121 19 -216 -1 -109 -22 -227
-81 -452 -226 -265 -170 -559 -343 -1040 -613 -927 -520 -1235 -718 -1705
-1090 -177 -141 -418 -321 -805 -603 -693 -504 -918 -694 -1509 -1277 -471
-464 -921 -952 -1392 -1510 -321 -379 -455 -490 -638 -526 -133 -26 -259 21
-391 147 -100 96 -151 164 -286 384 -183 301 -317 488 -683 959 -114 146 -342
446 -506 666 -616 826 -1060 1381 -1510 1890 -198 223 -481 547 -835 955 -488
562 -846 945 -1159 1237 -158 149 -227 197 -314 225 -69 21 -105 22 -167 3z
m-95 -20285 c264 -25 594 -100 937 -213 462 -154 824 -326 1178 -562 225 -150
401 -295 606 -499 475 -475 689 -858 822 -1471 38 -174 70 -383 119 -775 35
-284 38 -323 37 -560 0 -281 -17 -470 -64 -760 -39 -237 -125 -652 -148 -720
-84 -241 -212 -340 -439 -340 -102 0 -98 -1 -493 94 -961 232 -2038 338 -3260
323 -760 -10 -1273 -67 -2320 -259 -324 -60 -341 -62 -505 -62 -196 -1 -250
10 -383 75 -187 91 -315 280 -392 575 -32 124 -99 512 -127 734 -25 209 -26
698 0 860 52 323 175 666 391 1085 459 894 1140 1557 2083 2029 510 255 982
401 1440 445 127 12 391 13 518 1z m9040 -1820 c593 -28 1255 -89 1575 -145
769 -135 1888 -528 2379 -834 681 -426 1102 -1037 1160 -1686 16 -171 7 -642
-14 -740 -40 -192 -190 -569 -291 -733 -92 -148 -206 -241 -318 -257 -52 -8
-142 9 -213 41 -29 12 -108 58 -175 102 -155 99 -226 138 -359 196 -270 117
-544 187 -1094 281 -115 20 -347 60 -515 90 -943 166 -1309 202 -2201 215
-350 5 -760 14 -910 20 -526 20 -1325 61 -1394 71 -286 40 -434 159 -496 398
-15 55 -23 135 -30 286 -5 116 -19 300 -30 410 -30 289 -36 609 -15 755 49
328 173 652 330 861 245 325 606 511 1171 603 416 68 918 91 1440 66z m24828
-19797 c114 -55 230 -145 377 -293 246 -246 410 -498 576 -885 400 -938 596
-1690 622 -2400 11 -277 -2 -891 -22 -1060 -65 -556 -205 -1045 -432 -1510
-336 -690 -827 -1266 -1537 -1801 -1198 -904 -2623 -1285 -4142 -1108 -1054
123 -2001 520 -2830 1187 -429 345 -906 839 -1271 1317 -356 465 -572 1001
-673 1670 -71 469 -92 1117 -42 1303 75 284 276 441 609 476 53 6 336 12 627
15 741 7 1228 33 1925 101 1012 99 1742 239 2660 510 616 182 1573 527 1861
671 293 146 563 363 760 611 192 242 310 464 419 795 91 272 149 371 253 423
74 38 148 31 260 -22z m5925 -213 c94 -43 196 -167 312 -380 314 -579 750
-945 1557 -1306 1342 -601 2662 -972 3803 -1069 392 -33 626 -37 1760 -30
1172 7 1280 5 1437 -36 175 -44 260 -136 300 -326 21 -98 24 -553 4 -773 -76
-868 -311 -1589 -728 -2229 -216 -332 -537 -694 -853 -965 -561 -480 -1325
-909 -2060 -1157 -1123 -378 -2338 -408 -3655 -89 -320 77 -467 153 -903 464
-125 89 -292 205 -372 258 -1090 719 -1857 1746 -2231 2986 -59 197 -66 227
-85 362 -16 114 -40 911 -36 1165 12 762 287 1505 866 2345 293 425 539 709
666 769 78 37 152 41 218 11z m-28585 -8647 c284 -315 453 -555 870 -1241 606
-996 867 -1440 1092 -1857 125 -231 1434 -2841 1590 -3170 429 -906 715 -1593
965 -2320 106 -307 152 -415 391 -932 243 -523 350 -786 404 -985 82 -304 88
-633 15 -898 -66 -240 -196 -480 -370 -685 -163 -191 -627 -630 -1785 -1690
-1014 -927 -1089 -1006 -1090 -1150 0 -109 61 -183 341 -412 88 -72 180 -153
204 -180 23 -26 66 -97 96 -158 88 -184 219 -377 377 -559 39 -44 202 -214
362 -376 160 -162 331 -342 380 -398 142 -166 247 -241 590 -420 263 -137 331
-179 495 -301 227 -169 284 -238 284 -346 1 -76 -35 -147 -115 -226 -118 -117
-252 -119 -421 -6 -35 23 -139 120 -233 215 -510 520 -1061 1000 -1917 1669
-260 204 -398 324 -550 480 -328 338 -480 640 -440 875 14 80 65 199 111 257
16 20 492 500 1058 1067 977 979 1193 1188 1555 1506 262 231 389 384 498 603
110 221 149 377 157 631 6 182 -4 301 -37 464 -41 194 -70 279 -274 791 -576
1450 -1267 2998 -2191 4909 -565 1168 -964 1900 -1980 3630 -593 1010 -729
1246 -742 1290 -10 29 -13 69 -10 115 9 117 7 116 116 16 53 -49 144 -143 204
-208z"/>
<path d="M70817 15648 c-3 -18 -19 -112 -36 -208 -122 -706 -149 -1473 -81
-2261 33 -392 46 -470 87 -552 96 -192 304 -260 553 -182 367 116 613 382 762
827 56 168 78 276 84 418 11 214 -33 384 -138 545 -64 98 -156 191 -362 365
-289 244 -516 488 -659 705 -32 50 -89 153 -128 229 -38 76 -70 141 -73 143
-2 2 -6 -11 -9 -29z"/>
</g>
</svg>
